<?xml version="1.0" encoding="UTF-8"?>
<svg id="Layer_1" data-name="Layer 1" xmlns="http://www.w3.org/2000/svg" xmlns:xlink="http://www.w3.org/1999/xlink" viewBox="0 0 153.49 45.35">
  <defs>
    <style>
      .cls-1 {
        fill: url(#linear-gradient-2);
      }

      .cls-2 {
        fill: url(#linear-gradient-10);
      }

      .cls-3 {
        fill: #2c6cb5;
      }

      .cls-4 {
        fill: url(#linear-gradient-4);
      }

      .cls-5 {
        fill: url(#linear-gradient-3);
      }

      .cls-6 {
        fill: url(#linear-gradient-5);
      }

      .cls-6, .cls-7 {
        fill-rule: evenodd;
      }

      .cls-8 {
        fill: url(#linear-gradient-7);
      }

      .cls-9 {
        fill: url(#linear-gradient-9);
      }

      .cls-10 {
        fill: url(#linear-gradient-11);
      }

      .cls-11 {
        fill: url(#linear-gradient-6);
      }

      .cls-7 {
        fill: url(#linear-gradient-8);
      }

      .cls-12 {
        fill: #81c341;
      }

      .cls-13 {
        fill: url(#linear-gradient);
      }

      .cls-14 {
        fill: #28519e;
      }
    </style>
    <linearGradient id="linear-gradient" x1="21.4" y1="20.69" x2="11.34" y2="19.82" gradientUnits="userSpaceOnUse">
      <stop offset="0" stop-color="#b9d76f"/>
      <stop offset=".5" stop-color="#96cd81"/>
      <stop offset="1" stop-color="#81c341"/>
    </linearGradient>
    <linearGradient id="linear-gradient-2" x1="-2918.4" y1="1042.4" x2="-2937.72" y2="1057.71" gradientTransform="translate(-144.12 -3091.9) rotate(-73.15)" xlink:href="#linear-gradient"/>
    <linearGradient id="linear-gradient-3" x1="21.59" y1="20.44" x2="32.72" y2="20.37" xlink:href="#linear-gradient"/>
    <linearGradient id="linear-gradient-4" x1="-4262.27" y1="-3395.15" x2="-4281.59" y2="-3379.83" gradientTransform="translate(-4448.62 -3091.9) rotate(-106.85) scale(1 -1)" xlink:href="#linear-gradient"/>
    <linearGradient id="linear-gradient-5" x1="-355.59" y1="282.1" x2="-355.66" y2="336.81" gradientTransform="translate(-140.64 -403.33) rotate(-152.45) scale(1 -1)" gradientUnits="userSpaceOnUse">
      <stop offset="0" stop-color="#54c4db"/>
      <stop offset=".48" stop-color="#276bb4"/>
      <stop offset="1" stop-color="#3058a6"/>
    </linearGradient>
    <linearGradient id="linear-gradient-6" x1="15.02" y1="42.36" x2="42.24" y2="30.82" gradientTransform="matrix(1,0,0,1,0,0)" xlink:href="#linear-gradient-5"/>
    <linearGradient id="linear-gradient-7" x1="-2287.73" y1="-332.12" x2="-2291.17" y2="-324.73" gradientTransform="translate(-2277.55 7.34) rotate(-171.33) scale(1 -1)" xlink:href="#linear-gradient-5"/>
    <linearGradient id="linear-gradient-8" x1="3851.38" y1="2476.26" x2="3851.31" y2="2530.9" gradientTransform="translate(-4560.31 -403.33) rotate(-27.55)" xlink:href="#linear-gradient-5"/>
    <linearGradient id="linear-gradient-9" x1="30.6" y1="43.95" x2="-1.58" y2="28.86" gradientTransform="matrix(1,0,0,1,0,0)" xlink:href="#linear-gradient-5"/>
    <linearGradient id="linear-gradient-10" x1="2402.83" y1="383" x2="2399.39" y2="390.4" gradientTransform="translate(-2423.4 7.34) rotate(-8.67)" xlink:href="#linear-gradient-5"/>
    <linearGradient id="linear-gradient-11" x1="18.34" y1="10.68" x2="23.1" y2="14.48" xlink:href="#linear-gradient"/>
  </defs>
  <g>
    <path class="cls-14" d="M51.22,32.25c.73-.27,1.22-.68,1.48-1.24s.38-1.21.38-1.94v-10.23c0-.22-.02-.46-.05-.73-.04-.27-.1-.53-.18-.79-.08-.26-.21-.47-.38-.64-.17-.17-.4-.26-.69-.26l3.36-2.45.04,15.09c0,.73.13,1.38.38,1.94s.75.97,1.48,1.24h-5.81ZM56.34,16.79c.71-.85,1.57-1.55,2.59-2.1,1.02-.55,2.11-.82,3.25-.82.92,0,1.71.18,2.36.53s1.18.82,1.61,1.41c.43.58.74,1.26.93,2.03s.29,1.57.29,2.39v8.84c0,.73.13,1.38.4,1.96.27.57.77.98,1.5,1.22h-5.85c.73-.24,1.22-.66,1.48-1.24.26-.58.38-1.23.38-1.94v-9.28c0-.63-.07-1.25-.2-1.86-.13-.61-.36-1.15-.68-1.63-.32-.47-.72-.85-1.22-1.13-.5-.28-1.12-.42-1.85-.42-.93,0-1.82.2-2.67.6-.85.4-1.63.88-2.34,1.44Z"/>
    <path class="cls-12" d="M78.08,6.67c-.71.22-1.18.6-1.41,1.13-.23.54-.35,1.13-.35,1.79v22.25h6.58c1.46,0,2.69-.38,3.67-1.13.99-.75,1.83-1.74,2.54-2.96l-1.02,4.49h-16c.71-.22,1.17-.61,1.41-1.17s.35-1.17.35-1.83V9.59c0-.66-.12-1.25-.35-1.79-.23-.54-.7-.91-1.41-1.13h5.99Z"/>
    <path class="cls-12" d="M90.43,32.25c.71-.22,1.17-.6,1.41-1.15.23-.55.35-1.16.35-1.84v-10.71c0-.2-.01-.42-.04-.68s-.08-.5-.16-.75c-.09-.24-.21-.44-.37-.6-.16-.16-.37-.24-.64-.24l3.29-2.3v15.27c0,.68.12,1.3.37,1.84.24.55.71.93,1.39,1.15h-5.59ZM93.09,8.13c.44,0,.79.13,1.06.4.27.27.4.62.4,1.06s-.13.79-.4,1.06-.62.4-1.06.4-.8-.13-1.08-.4c-.28-.27-.42-.62-.42-1.06s.14-.79.42-1.06c.28-.27.64-.4,1.08-.4Z"/>
    <path class="cls-12" d="M97.84,13.98h5.59c-.37.12-.63.34-.8.66-.17.32-.26.66-.26,1.02,0,.12.01.26.04.4.02.15.06.28.11.4l5.63,12.53,5.19-11.73c.1-.27.15-.57.15-.91,0-.56-.15-1.07-.44-1.54-.29-.46-.73-.74-1.32-.84h5.59c-.71.12-1.33.43-1.88.91-.55.49-.96,1.05-1.22,1.68l-6.98,15.75-6.8-15.38c-.29-.68-.62-1.27-.99-1.77-.37-.5-.9-.9-1.61-1.19Z"/>
    <path class="cls-12" d="M116.41,23.51c0-1.41.21-2.7.62-3.85s1.02-2.15,1.81-2.98c.79-.83,1.75-1.47,2.89-1.94,1.13-.46,2.42-.69,3.86-.69,1.1,0,2.06.23,2.89.69.83.46,1.52,1.07,2.06,1.81.55.74.96,1.6,1.24,2.56.28.96.42,1.94.42,2.94h-13.59c-.02.15-.04.29-.04.44v.44c0,1.19.15,2.3.44,3.33.29,1.02.75,1.92,1.37,2.69s1.4,1.37,2.34,1.81c.94.44,2.05.66,3.34.66,1.58,0,2.88-.32,3.89-.95s1.87-1.45,2.58-2.45c.71-1,1.32-2.1,1.85-3.31.52-1.21,1.07-2.38,1.63-3.53v-2.34c0-.22-.02-.47-.05-.75-.04-.28-.1-.55-.18-.8-.09-.26-.21-.47-.38-.64-.17-.17-.4-.26-.69-.26l3.33-2.41.04,3.73c.39-.51.85-1,1.37-1.48.52-.48,1.09-.88,1.7-1.22.61-.34,1.25-.62,1.92-.82.67-.21,1.33-.31,1.99-.31.92,0,1.71.18,2.36.53s1.17.82,1.59,1.41c.41.58.72,1.26.91,2.03s.29,1.57.29,2.39v8.81c0,.71.13,1.36.4,1.96.27.6.77,1.02,1.5,1.26h-5.81c.73-.24,1.22-.66,1.48-1.26.26-.6.38-1.25.38-1.96v-9.24c0-.63-.07-1.25-.2-1.85-.13-.6-.36-1.13-.68-1.61-.32-.48-.72-.86-1.22-1.15-.5-.29-1.11-.44-1.85-.44-.78,0-1.58.17-2.41.49-.83.33-1.54.74-2.12,1.22-.8.66-1.5,1.51-2.1,2.56-.6,1.05-1.16,2.16-1.7,3.33-.54,1.17-1.08,2.33-1.63,3.49-.55,1.16-1.19,2.17-1.92,3.05-.9,1.1-1.96,1.97-3.16,2.63-1.21.66-2.53.99-3.96.99-1.27,0-2.44-.24-3.51-.71-1.07-.47-2-1.11-2.78-1.92-.78-.8-1.39-1.75-1.83-2.85-.44-1.1-.66-2.27-.66-3.51ZM118.64,21.54h9.46c.75,0,1.33-.26,1.72-.79.39-.52.58-1.14.58-1.84s-.15-1.38-.46-1.94-.7-1.04-1.19-1.43c-.49-.39-1.05-.69-1.7-.89s-1.3-.31-1.96-.31c-.9,0-1.75.21-2.54.64-.79.43-1.48.98-2.06,1.66-.58.68-1.04,1.46-1.37,2.32-.33.87-.49,1.72-.49,2.58ZM135.99,29.03v-4.9c0-.12.09-.4.27-.82.18-.43.39-.88.62-1.37.23-.49.46-.93.68-1.33.22-.4.38-.64.47-.71v9.13c0,.71.13,1.35.38,1.94.26.58.75,1.01,1.48,1.28h-5.77c.73-.27,1.22-.69,1.48-1.28.26-.58.38-1.23.38-1.94Z"/>
  </g>
  <g>
    <path class="cls-14" d="M53.58,40.79h-.6v-1.54h-1.55v1.54h-.6v-3.47h.6v1.45h1.55v-1.45h.6v3.47Z"/>
    <path class="cls-14" d="M58.76,39.24h-1.43v1.07h1.67v.48h-2.27v-3.47h2.25v.49h-1.65v.96h1.43v.48Z"/>
    <path class="cls-14" d="M63.88,39.98h-1.35l-.28.81h-.63l1.31-3.47h.54l1.31,3.47h-.63l-.28-.81ZM62.7,39.5h1.01l-.5-1.44-.5,1.44Z"/>
    <path class="cls-14" d="M68.23,40.31h1.58v.48h-2.18v-3.47h.6v2.99Z"/>
    <path class="cls-14" d="M74.73,37.81h-1.08v2.99h-.6v-2.99h-1.07v-.49h2.75v.49Z"/>
    <path class="cls-14" d="M80.39,40.79h-.6v-1.54h-1.55v1.54h-.6v-3.47h.6v1.45h1.55v-1.45h.6v3.47Z"/>
    <path class="cls-14" d="M89.85,39.66c-.03.37-.17.66-.41.87-.24.21-.56.31-.95.31-.28,0-.52-.07-.73-.2-.21-.13-.37-.32-.49-.56s-.17-.52-.18-.84v-.32c0-.33.06-.62.17-.87s.28-.44.5-.58c.22-.13.47-.2.75-.2.38,0,.69.1.93.31.23.21.37.5.41.88h-.6c-.03-.25-.1-.43-.22-.54-.12-.11-.29-.17-.51-.17-.26,0-.46.1-.6.29-.14.19-.21.47-.22.84v.31c0,.38.07.66.2.86s.33.3.59.3c.24,0,.41-.05.53-.16.12-.11.19-.28.23-.53h.6Z"/>
    <path class="cls-14" d="M94.78,39.98h-1.35l-.28.81h-.63l1.31-3.47h.54l1.31,3.47h-.63l-.28-.81ZM93.6,39.5h1.01l-.5-1.44-.5,1.44Z"/>
    <path class="cls-14" d="M99.8,39.46h-.67v1.34h-.6v-3.47h1.22c.4,0,.71.09.93.27.22.18.33.44.33.78,0,.23-.06.43-.17.58-.11.16-.27.28-.47.36l.78,1.45v.03h-.65l-.7-1.34ZM99.13,38.97h.62c.2,0,.36-.05.48-.15.11-.1.17-.24.17-.42s-.05-.33-.16-.43c-.11-.1-.26-.15-.47-.16h-.64v1.16Z"/>
    <path class="cls-14" d="M106.05,39.24h-1.43v1.07h1.67v.48h-2.27v-3.47h2.25v.49h-1.65v.96h1.43v.48Z"/>
    <path class="cls-14" d="M114.69,39.9c0-.15-.05-.27-.16-.35-.11-.08-.3-.17-.58-.25s-.5-.18-.67-.28c-.32-.2-.47-.46-.47-.78,0-.28.11-.51.34-.69.23-.18.52-.27.89-.27.24,0,.46.04.65.13s.34.22.45.38c.11.16.16.35.16.55h-.6c0-.18-.06-.32-.17-.43-.11-.1-.28-.15-.49-.15-.2,0-.35.04-.46.13-.11.08-.16.2-.16.35,0,.13.06.23.18.32.12.09.31.17.58.25.27.08.49.17.65.27.16.1.28.22.36.35.08.13.11.29.11.47,0,.29-.11.52-.33.69-.22.17-.52.26-.9.26-.25,0-.48-.05-.69-.14-.21-.09-.37-.22-.49-.39-.12-.16-.18-.35-.18-.57h.6c0,.2.06.35.2.46s.32.16.56.16c.21,0,.37-.04.47-.13.11-.08.16-.2.16-.34Z"/>
    <path class="cls-14" d="M120.3,39.24h-1.43v1.07h1.67v.48h-2.27v-3.47h2.25v.49h-1.65v.96h1.43v.48Z"/>
    <path class="cls-14" d="M124.75,39.46h-.67v1.34h-.6v-3.47h1.22c.4,0,.71.09.93.27.22.18.33.44.33.78,0,.23-.06.43-.17.58-.11.16-.27.28-.47.36l.78,1.45v.03h-.65l-.7-1.34ZM124.08,38.97h.62c.2,0,.36-.05.48-.15.11-.1.17-.24.17-.42s-.05-.33-.16-.43c-.11-.1-.26-.15-.47-.16h-.64v1.16Z"/>
    <path class="cls-14" d="M130.14,40.04l.88-2.72h.66l-1.25,3.47h-.58l-1.24-3.47h.66l.87,2.72Z"/>
    <path class="cls-14" d="M135.16,40.79h-.6v-3.47h.6v3.47Z"/>
    <path class="cls-14" d="M140.99,39.66c-.04.37-.17.66-.41.87-.24.21-.56.31-.95.31-.28,0-.52-.07-.73-.2-.21-.13-.37-.32-.49-.56-.11-.24-.17-.52-.18-.84v-.32c0-.33.06-.62.17-.87.12-.25.28-.44.5-.58.22-.13.47-.2.75-.2.38,0,.69.1.93.31.23.21.37.5.41.88h-.6c-.03-.25-.1-.43-.22-.54-.12-.11-.29-.17-.51-.17-.26,0-.46.1-.6.29-.14.19-.21.47-.22.84v.31c0,.38.07.66.2.86.13.2.33.3.59.3.24,0,.41-.05.53-.16.12-.11.19-.28.23-.53h.6Z"/>
    <path class="cls-14" d="M146,39.24h-1.43v1.07h1.67v.48h-2.27v-3.47h2.25v.49h-1.65v.96h1.43v.48Z"/>
    <path class="cls-14" d="M150.99,39.9c0-.15-.05-.27-.16-.35-.11-.08-.3-.17-.58-.25s-.5-.18-.67-.28c-.32-.2-.47-.46-.47-.78,0-.28.11-.51.34-.69.23-.18.52-.27.89-.27.24,0,.46.04.65.13s.34.22.45.38c.11.16.16.35.16.55h-.6c0-.18-.06-.32-.17-.43-.11-.1-.28-.15-.49-.15-.2,0-.35.04-.46.13-.11.08-.16.2-.16.35,0,.13.06.23.18.32.12.09.31.17.58.25.27.08.49.17.65.27.16.1.28.22.36.35.08.13.11.29.11.47,0,.29-.11.52-.33.69-.22.17-.52.26-.9.26-.25,0-.48-.05-.69-.14-.21-.09-.37-.22-.49-.39-.12-.16-.18-.35-.18-.57h.6c0,.2.06.35.2.46s.32.16.56.16c.21,0,.37-.04.47-.13.11-.08.16-.2.16-.34Z"/>
  </g>
  <g>
    <path class="cls-13" d="M21.87,30.53s-.3-1.76-3.11-3.15c-2.81-1.39-8.82-3.07-9.44-8.65-.62-5.58,3.81-8.18,4.8-8.47,0,0-1.93,3.46.85,6.4,2.78,2.95,4.4,2.39,6.3,5.58s1.28,7.27.6,8.28Z"/>
    <path class="cls-1" d="M21.9,30.37s.33-5.57-2.42-7.41-6.11-2.51-7.32-5.3c-1.21-2.79.79-6.15,1.96-7.4,0,0-5.34,1.95-4.94,8.16.39,6.21,7.39,7.67,9.58,8.95,2.2,1.29,3.14,2.99,3.14,2.99Z"/>
  </g>
  <g>
    <path class="cls-5" d="M21.97,30.54s.3-1.76,3.11-3.15,8.82-3.07,9.44-8.65c.62-5.58-3.81-8.18-4.8-8.47,0,0,1.93,3.46-.85,6.4s-4.4,2.39-6.3,5.58c-1.9,3.19-1.28,7.27-.6,8.28Z"/>
    <path class="cls-4" d="M21.94,30.38s-.33-5.57,2.42-7.41c2.74-1.83,6.11-2.51,7.32-5.3,1.21-2.79-.79-6.15-1.96-7.4,0,0,5.34,1.95,4.94,8.16-.39,6.21-7.39,7.67-9.58,8.95-2.2,1.29-3.14,2.99-3.14,2.99Z"/>
  </g>
  <g>
    <path class="cls-6" d="M32.18,28.74c2.42-1.23,2.36-2.19,3.95-4.13.54-.66,1.4-.18,1.25,1.22-.21,1.95-2.03,4.43-3.76,5.95-.74.65,4.94-1.54,6.5-6.68.5-1.65.55-3,.64-5.28-.04-2.09,1.15-3.28,1.15-3.28,0,0,.63,1.2.9,3.05,1.54,10.52-5.57,17.6-13.41,19.68-1.69.45-4.15,1.82-5.11,3.19-.82,1.17-2.26,1.59-2.26,1.59,0,0-.02-.78.21-1.45,2.56-9.31,4.5-11.11,9.93-13.87Z"/>
    <path class="cls-11" d="M42.73,25.82s-2.19,7.36-8.71,10.09c-6.52,2.73-9.46,2.8-11.57,6.39,0,0-.22.35-.29.6s-.13,1.17-.13,1.17c0,0,.83.01,1.68-.88.45-.47,2.03-3.07,7.08-4.33,5.05-1.26,10.65-6.45,11.94-13.03Z"/>
    <path class="cls-8" d="M37.14,24.55s.31,2.4-3.61,7.25c0,0-.02.07.09-.02s4.97-4.59,3.52-7.23Z"/>
  </g>
  <g>
    <path class="cls-7" d="M11.63,28.64c-2.42-1.23-2.36-2.19-3.95-4.13-.16-.2-.36-.3-.54-.29-.43,0-.81.53-.71,1.51.21,1.95,2.03,4.43,3.76,5.95.74.65-4.94-1.54-6.5-6.68-.5-1.65-.55-3-.64-5.28.04-2.03-1.05-3.28-1.05-3.28,0,0-.73,1.16-1.01,3.05-1.54,10.52,5.57,17.6,13.41,19.68,1.69.45,4.08,1.88,5.11,3.19,1.2,1.53,2.2,1.62,2.2,1.62,0,0,.07-.82-.15-1.48-2.56-9.31-4.5-11.11-9.93-13.87Z"/>
    <path class="cls-9" d="M1.07,25.72s2.19,7.36,8.71,10.09c6.52,2.73,9.46,2.8,11.57,6.39,0,0,.22.35.29.6s.16,1.27.16,1.27c0,0-.76.08-1.71-.98-.44-.49-2.03-3.07-7.08-4.33-5.05-1.26-10.65-6.45-11.94-13.03Z"/>
    <path class="cls-2" d="M6.66,24.45s-.31,2.4,3.61,7.25c0,0,.02.07-.09-.02s-4.97-4.59-3.52-7.23Z"/>
  </g>
  <circle class="cls-10" cx="22.12" cy="13.7" r="2.67"/>
  <path class="cls-3" d="M5.67,11.24l.3.18-.66,1.09-1.35-.83.65-1.06.3.18-.42.68.23.14.37-.6.29.17-.37.6.25.15.43-.71Z"/>
  <path class="cls-3" d="M6.14,8.53l1.25.98-.23.29-1.1.03.66.52-.27.35-1.25-.98.23-.29,1.1-.03-.66-.52.27-.35Z"/>
  <path class="cls-3" d="M7.98,6.62l1.11,1.13-.32.31-.43-.44-.44.43.43.44-.32.31-1.11-1.13.32-.32.42.42.44-.43-.42-.42.32-.31Z"/>
  <path class="cls-3" d="M10.48,6.23l-.53.41.09.32-.36.28-.41-1.69.35-.27,1.52.83-.37.28-.29-.17ZM10.17,6.05l-.47-.28.15.53.32-.25Z"/>
  <path class="cls-3" d="M12.26,3.58l.8,1.37-.32.19-1.03-.38.42.73-.38.22-.8-1.37.32-.18,1.03.38-.42-.73.38-.22Z"/>
  <path class="cls-3" d="M14.21,4.32c-.15-.01-.28-.06-.4-.15-.12-.09-.21-.2-.27-.35-.06-.15-.08-.29-.06-.44.02-.15.08-.28.17-.39.09-.12.22-.21.37-.27.13-.06.26-.08.39-.08.13,0,.25.03.35.09l-.16.35c-.14-.07-.28-.08-.42-.02-.08.03-.14.08-.19.14-.05.06-.07.13-.08.21,0,.08,0,.16.04.24.04.08.08.15.14.2.06.05.13.08.21.09.08,0,.15,0,.23-.04.14-.06.23-.16.27-.32l.36.13c-.03.12-.09.22-.18.32-.09.09-.2.17-.33.22-.15.06-.3.09-.45.08Z"/>
  <path class="cls-3" d="M15.59,2.17l.43-.14.48,1.51-.43.14-.48-1.51Z"/>
  <path class="cls-3" d="M18.56,1.41l.33,1.55-.36.08-.86-.68.18.83-.43.09-.33-1.55.36-.08.86.68-.18-.83.43-.09Z"/>
  <path class="cls-3" d="M20.82,1.91l.39-.03.06.65c-.08.07-.18.13-.3.18-.11.04-.23.07-.35.08-.17.01-.32,0-.46-.07s-.25-.15-.34-.26c-.09-.12-.14-.26-.15-.42-.01-.16.01-.3.08-.44.06-.13.16-.24.29-.32.13-.08.28-.13.44-.14.15-.01.28,0,.4.04.12.04.23.1.31.19l-.26.28c-.12-.11-.25-.16-.4-.14-.13.01-.24.06-.32.15s-.11.2-.1.34c0,.09.03.16.08.23.04.07.1.11.17.15.07.03.15.04.24.04.08,0,.17-.03.24-.07l-.04-.43Z"/>
  <path class="cls-3" d="M24.43,2.25l-.06.57-.45-.05.06-.57-.5-1.07.47.05.31.67.44-.59.43.04-.71.95Z"/>
  <path class="cls-3" d="M25.99,2.99c-.11-.1-.2-.22-.24-.36s-.05-.29-.02-.44c.03-.15.1-.28.21-.39.1-.11.22-.18.37-.22.15-.04.3-.04.46,0,.16.04.3.1.42.2.12.1.2.22.24.36.05.14.05.29.02.44-.03.15-.1.28-.2.39-.1.11-.23.18-.37.22-.15.04-.3.04-.46,0-.16-.04-.3-.1-.42-.2ZM26.71,2.83c.07-.02.13-.06.19-.12.05-.06.09-.13.11-.22s.02-.17,0-.24c-.02-.07-.06-.14-.11-.19-.06-.05-.12-.09-.2-.1s-.15-.01-.22,0c-.07.02-.13.06-.19.12-.05.06-.09.13-.11.22-.02.09-.02.17,0,.24.02.08.06.14.12.19s.12.08.2.1c.08.02.15.02.22,0Z"/>
  <path class="cls-3" d="M28.31,3.52c-.08-.17-.08-.36,0-.58l.3-.83.42.15-.29.81c-.09.24-.04.39.15.46.19.07.32-.02.41-.26l.29-.81.42.15-.3.83c-.08.22-.2.37-.37.45-.17.08-.36.07-.58,0-.22-.08-.37-.2-.45-.37Z"/>
  <path class="cls-3" d="M31.16,4.44l-.22-.11-.19.38-.4-.2.72-1.41.65.33c.13.06.23.14.3.23.07.09.12.19.13.29.01.1-.01.21-.06.32-.05.1-.12.18-.21.23-.09.05-.19.08-.3.08l.08.6-.43-.22-.07-.51ZM31.69,3.86c-.02-.06-.08-.11-.16-.15l-.22-.11-.21.41.22.11c.08.04.15.06.21.04s.11-.06.14-.12c.03-.07.04-.13.02-.19Z"/>
  <path class="cls-3" d="M34.43,5.05l.36.27-.74.98.6.46-.21.28-.96-.73.96-1.26Z"/>
  <path class="cls-3" d="M36.12,6.41l.33.3-1.07,1.17-.33-.3,1.06-1.18Z"/>
  <path class="cls-3" d="M38.33,8.66l-1.63.56-.3-.33.72-1.57.33.36-.48,1.01,1.06-.37.3.33Z"/>
  <path class="cls-3" d="M38.63,11.15l-.28.2-.74-1.04,1.29-.92.72,1.01-.28.2-.47-.65-.22.16.41.57-.27.2-.41-.57-.24.17.48.67Z"/>
  <path class="cls-3" d="M38.91,12.25c-.03-.12-.04-.23-.03-.32l.36-.03c0,.09,0,.18.02.27.02.1.05.18.1.26.08.15.17.2.24.16.04-.02.06-.06.05-.11,0-.05-.02-.13-.06-.24-.04-.12-.06-.22-.07-.3-.01-.08,0-.17.02-.25.03-.08.09-.15.19-.2.08-.05.17-.07.27-.06.09,0,.19.05.28.12.09.07.17.17.25.3.05.09.09.19.12.29.03.1.04.2.04.28l-.36.04c0-.17-.04-.32-.11-.44-.04-.08-.09-.13-.13-.15-.04-.02-.08-.02-.12,0s-.05.06-.05.11c0,.05.02.13.06.24.04.12.06.22.07.3.01.08,0,.17-.02.25-.03.08-.09.15-.19.2-.08.05-.17.07-.26.06-.09,0-.19-.05-.28-.12-.09-.07-.17-.17-.25-.3-.06-.11-.11-.23-.14-.35Z"/>
</svg>